<svg xmlns="http://www.w3.org/2000/svg" width="48" height="48" id="saw">
  <g fill-rule="evenodd" transform="translate(0 -1004.362)">
    <circle cx="24" cy="1028.362" r="24" fill="#239fdb"></circle>
    <path fill="#fff" d="M16.237 1014.022a.5.5 0 0 0-.606-.076l-5.153 3.012a.5.5 0 0 0-.242.363l-.31 2.275a.5.5 0 0 0 .516.566l1.52-.06-.229 1.683a.5.5 0 0 0 .515.568l1.521-.062-.23 1.683a.5.5 0 0 0 .516.566l1.52-.059-.229 1.682a.5.5 0 0 0 .515.568l1.521-.062-.23 1.685a.5.5 0 0 0 .516.567l1.52-.062-.23 1.684a.5.5 0 0 0 .516.566l1.52-.061-.228 1.683a.5.5 0 0 0 .515.568l1.52-.062-.23 1.683a.5.5 0 0 0 .142.422l.105.105a.5.5 0 0 0 .337.146l2.612.082-.444 3.178.623 1.05.999 1.731c.411.713 1.317.905 2.018.565l2.958-1.433 1.88-4.277 1.63-.98c.412-.247.584-.712.568-1.114a1.608 1.608 0 0 0-.47-1.082l-1.165-1.164-18.127-18.126zm-.434.98 13.869 13.869-3.438 3.437-.33 2.372-2.283-.073.25-1.825a.5.5 0 0 0-.516-.566l-1.52.06.228-1.683a.5.5 0 0 0-.515-.567l-1.52.062.229-1.685a.5.5 0 0 0-.515-.568l-1.521.062.23-1.683a.5.5 0 0 0-.516-.567l-1.52.061.229-1.683a.5.5 0 0 0-.516-.568l-1.52.062.23-1.683a.5.5 0 0 0-.515-.568l-1.522.061.231-1.683a.5.5 0 0 0-.518-.565l-1.518.06.196-1.443 4.61-2.696zm14.576 14.576 3.027 3.027 1.414 1.415a.694.694 0 0 1 .179.412c.005.136-.02.18-.083.219l-1.903 1.143-1.86 4.232-2.629 1.273c-.297.144-.57.081-.712-.165l-1.003-1.735-.446-.756.817-5.866 3.2-3.2zm2.269 3.686a.5.5 0 0 0-.105-.083l-1.735-1a.5.5 0 0 0-.682.183l-2.5 4.33a.5.5 0 0 0 .184.684l1.732 1a.5.5 0 0 0 .683-.184l2.5-4.33a.5.5 0 0 0-.077-.6zm-1.039.533-2 3.465-.867-.501 2-3.464.867.5z" color="#000" font-family="sans-serif" font-weight="400" overflow="visible" style="line-height:normal;text-indent:0;text-align:start;text-decoration-line:none;text-decoration-style:solid;text-decoration-color:#000;text-transform:none;block-progression:tb;isolation:auto;mix-blend-mode:normal"></path>
  </g>
</svg>
