<svg style="max-height: 500px" color-interpolation-filters="sRGB" preserveAspectRatio="xMidYMid meet" viewBox="40.5 93 269.5 71.5" xmlns:xlink="http://www.w3.org/1999/xlink" xmlns="http://www.w3.org/2000/svg" version="1.0" data-v-0dd9719b="" width="269.5" height="71.5"> <rect class="background" fill-opacity="0" fill="#ffffff" height="100%" width="100%" y="0" x="0" data-v-0dd9719b=""/> <rect class="watermarklayer" fill-opacity="1" fill="url(#watermark)" height="100%" width="100%" y="0" x="0" data-v-0dd9719b=""/> <g transform="translate(42.219993591308594,97.8799991607666)" class="pmspacesvg" fill="#020f40" data-v-0dd9719b=""> <polyline points="10,54.2400016784668 255.5600128173828,54.2400016784668 255.5600128173828,10" stroke-opacity="0.5" fill-opacity="0" stroke-width="20" stroke="#020f40" data-gra="graph-name"/>  <g mask="url(#ddbacb46-3a69-4bcf-b41b-95ac62fb55aa)"><g><rect height="54.2400016784668" width="255.5600128173828" y="0" x="0" class="i-icon-bg" stroke-width="2" data-gra="graph-name-bg"/>   </g> <g transform="translate(10,10)"><g transform="matrix(1,0,0,1,0,2.8503903736117415)" opacity="0.8574804813194129" fill="#ffffff" class="tp-name" fill-rule="" data-gra="path-name"><g transform="scale(1)"><g><path transform="translate(-1.4300000667572021, 33.7599983215332)" d="M28.48-22.35C28.48-29.81 23.2-33.76 14.69-33.76 7.04-33.76 1.9-29.96 1.9-24.82 1.9-12.7 22.06-17.07 22.06-9.22 22.06-6.51 19.26-4.76 15.26-4.76 10.65-4.76 7.94-7.13 7.94-10.98L1.43-10.98C1.43-3.09 6.99 0.48 15.41 0.48 23.11 0.48 28.48-3.38 28.48-9.22 28.48-21.3 8.13-17.64 8.13-24.73 8.13-27.58 11.6-28.58 14.74-28.58 19.07-28.58 22.06-26.15 22.06-22.35ZM55.63 0L61.91 0 61.91-33.29 55.78-33.29 55.78-10.37 55.54-10.37 39.47-33.29 32.86-33.29ZM33.14 0L39.37 0 39.37-16.31 33.14-25.2ZM85.45-33.29L77.32-33.29 65.38 0 72.32 0 81.17-26.39 81.64-26.39 91.11 0 98.52 0ZM115.12-11.27C123.68-11.27 127.2-16.5 127.2-22.59 127.2-28.58 124.15-33.29 115.12-33.29L102-33.29 102-27.67 114.03-27.67C118.59-27.67 120.44-25.87 120.44-22.4 120.44-18.92 118.21-16.88 114.07-16.88L102-16.88 102 0 108.41 0 108.41-11.27ZM131.14 0L137.56 0 137.56-14.36 154.63-14.36 154.63 0 161.05 0 161.05-33.29 154.63-33.29 154.63-20.45 137.56-20.45 137.56-33.29 131.14-33.29ZM173.99-28.15L173.99-33.29 167.52-33.29 167.52-28.15ZM167.52 0L173.94 0 173.94-23.78 167.52-23.78ZM189.49 0L196.05 0 184.07-33.29 177.31-33.29ZM198.19-4.95L209.36-33.29 202.04-33.29 195.15-13.27ZM236.99-27.06L236.99-33.29 212.36-33.29 212.36-27.06ZM236.99-13.69L236.99-19.59 212.36-19.59 212.36-13.69ZM212.36 0L236.99 0 236.99-6.28 212.36-6.28Z"/></g>       </g></g> </g></g></g><mask id="ddbacb46-3a69-4bcf-b41b-95ac62fb55aa"><g fill="white"><rect height="54.2400016784668" width="255.5600128173828" y="0" x="0" class="i-icon-bg" stroke-width="2" data-gra="graph-name-bg"/>   </g> <g fill="black" transform="translate(10,10)"><g transform="matrix(1,0,0,1,0,2.8503903736117415)" opacity="0.8574804813194129" class="tp-name" fill-rule="" data-gra="path-name"><g transform="scale(1)"><g><path transform="translate(-1.4300000667572021, 33.7599983215332)" d="M28.48-22.35C28.48-29.81 23.2-33.76 14.69-33.76 7.04-33.76 1.9-29.96 1.9-24.82 1.9-12.7 22.06-17.07 22.06-9.22 22.06-6.51 19.26-4.76 15.26-4.76 10.65-4.76 7.94-7.13 7.94-10.98L1.43-10.98C1.43-3.09 6.99 0.48 15.41 0.48 23.11 0.48 28.48-3.38 28.48-9.22 28.48-21.3 8.13-17.64 8.13-24.73 8.13-27.58 11.6-28.58 14.74-28.58 19.07-28.58 22.06-26.15 22.06-22.35ZM55.63 0L61.91 0 61.91-33.29 55.78-33.29 55.78-10.37 55.54-10.37 39.47-33.29 32.86-33.29ZM33.14 0L39.37 0 39.37-16.31 33.14-25.2ZM85.45-33.29L77.32-33.29 65.38 0 72.32 0 81.17-26.39 81.64-26.39 91.11 0 98.52 0ZM115.12-11.27C123.68-11.27 127.2-16.5 127.2-22.59 127.2-28.58 124.15-33.29 115.12-33.29L102-33.29 102-27.67 114.03-27.67C118.59-27.67 120.44-25.87 120.44-22.4 120.44-18.92 118.21-16.88 114.07-16.88L102-16.88 102 0 108.41 0 108.41-11.27ZM131.14 0L137.56 0 137.56-14.36 154.63-14.36 154.63 0 161.05 0 161.05-33.29 154.63-33.29 154.63-20.45 137.56-20.45 137.56-33.29 131.14-33.29ZM173.99-28.15L173.99-33.29 167.52-33.29 167.52-28.15ZM167.52 0L173.94 0 173.94-23.78 167.52-23.78ZM189.49 0L196.05 0 184.07-33.29 177.31-33.29ZM198.19-4.95L209.36-33.29 202.04-33.29 195.15-13.27ZM236.99-27.06L236.99-33.29 212.36-33.29 212.36-27.06ZM236.99-13.69L236.99-19.59 212.36-19.59 212.36-13.69ZM212.36 0L236.99 0 236.99-6.28 212.36-6.28Z"/></g>       </g></g> </g></mask><defs/></svg>