<svg xmlns="http://www.w3.org/2000/svg" width="26" height="26" id="screw">
  <g transform="translate(0 -1026.362)">
    <circle cx="13" cy="1039.362" r="13" fill="#ef4c45" fill-rule="evenodd"></circle>
    <path fill="#df2209" d="M11.008 25.83a13 13 0 0 0 .695.106A13 13 0 0 0 13 26a13 13 0 0 0 .92-.033 13 13 0 0 0 1.289-.156 13 13 0 0 0 1.268-.286 13 13 0 0 0 1.234-.408 13 13 0 0 0 1.185-.531 13 13 0 0 0 1.127-.647 13 13 0 0 0 1.057-.755 13 13 0 0 0 .977-.858 13 13 0 0 0 .886-.951 13 13 0 0 0 .786-1.035 13 13 0 0 0 .68-1.108 13 13 0 0 0 .566-1.17 13 13 0 0 0 .445-1.22 13 13 0 0 0 .32-1.26 13 13 0 0 0 .196-1.285A13 13 0 0 0 26 13a13 13 0 0 0-.016-.438L20.52 7.098a.5.5 0 0 0-.202-.202l-1.214-1.214a.5.5 0 0 0-.202-.202 3.978 3.978 0 0 0-1.845-.478h-.002V5c-.21 0-.421.013-.63.043a3.993 3.993 0 0 0-2.25 1.125c-1.034 1.035-1.365 2.5-1.025 3.826l-7.562 7.563a2.024 2.024 0 0 0 0 2.853l5.42 5.42z" color="#000" font-family="sans-serif" font-weight="400" style="line-height:normal;text-indent:0;text-align:start;text-decoration-line:none;text-decoration-style:solid;text-decoration-color:#000;text-transform:none;block-progression:tb;isolation:auto;mix-blend-mode:normal" transform="translate(0 1026.362)"></path>
    <path fill="#fff" d="M17.055 1031.363c-.21 0-.421.013-.629.043a3.993 3.993 0 0 0-2.25 1.125c-1.035 1.035-1.366 2.5-1.025 3.826l-7.563 7.563a2.024 2.024 0 0 0 0 2.853c.785.785 2.07.785 2.854 0l7.562-7.562c1.326.34 2.791.012 3.826-1.024a4.002 4.002 0 0 0 .69-4.728.5.5 0 0 0-.793-.117l-2.371 2.37-.705-.706 2.367-2.37a.5.5 0 0 0-.115-.792 3.98 3.98 0 0 0-1.848-.48zm-.215 1.025c.271.027.541.135.815.198l-2.065 2.066a.5.5 0 0 0 0 .707l1.412 1.414a.5.5 0 0 0 .707 0l2.069-2.068c.227.988.09 2.03-.655 2.775a2.99 2.99 0 0 1-4.24 0 2.992 2.992 0 0 1 0-4.24 2.993 2.993 0 0 1 1.686-.848.95.95 0 0 1 .271 0zm-3.28 4.973c.17.293.366.576.616.826s.532.444.824.614l-7.265 7.265a1.005 1.005 0 0 1-1.44 0 1.005 1.005 0 0 1 0-1.44l7.266-7.265zm-6.48 7.406a.506.506 0 0 0-.037 0 .506.506 0 0 0-.314.147.506.506 0 0 0 0 .717.506.506 0 0 0 .717 0 .506.506 0 0 0 0-.717.506.506 0 0 0-.366-.149z" color="#000" font-family="sans-serif" font-weight="400" overflow="visible" style="line-height:normal;text-indent:0;text-align:start;text-decoration-line:none;text-decoration-style:solid;text-decoration-color:#000;text-transform:none;block-progression:tb;isolation:auto;mix-blend-mode:normal"></path>
  </g>
</svg>
