<?xml version="1.0" encoding="iso-8859-1"?>
<!-- Uploaded to: SVG Repo, www.svgrepo.com, Generator: SVG Repo Mixer Tools -->
<svg height="800px" width="800px" version="1.1" id="Layer_1" xmlns="http://www.w3.org/2000/svg" xmlns:xlink="http://www.w3.org/1999/xlink" 
	 viewBox="0 0 512 512" xml:space="preserve">
<circle style="fill:#00447D;" cx="256" cy="256" r="256"/>
<path style="fill:#062964;" d="M512,256c0-2.713-0.057-5.413-0.141-8.106L364.882,100.919l-58.889,46.475l38.214,38.214
	L184.746,345.069l-37.352-37.352l-43.603,54.294l149.961,149.959c0.75,0.007,1.496,0.029,2.248,0.029
	C397.384,512,512,397.386,512,256z"/>
<path style="fill:#FFFFFF;" d="M212.497,340.304l130.679-130.679c18.308,4.603,38.503-0.248,52.824-14.567
	c12.909-12.909,18.125-30.594,15.657-47.366l-30.917,30.917l-26.953,3.567L330.4,158.789l3.567-26.953l30.917-30.917
	c-16.772-2.469-34.457,2.748-47.366,15.657c-14.319,14.319-19.17,34.516-14.567,52.824L172.272,300.079
	c-18.308-4.603-38.503,0.248-52.822,14.567c-12.909,12.909-18.125,30.594-15.657,47.366l30.917-30.917l26.953-3.567l23.387,23.387
	l-3.567,26.953l-30.917,30.917c16.772,2.469,34.457-2.746,47.366-15.656C212.249,378.809,217.1,358.614,212.497,340.304z"/>
<path style="fill:#D0D1D3;" d="M411.657,147.692l-30.917,30.917l-26.953,3.567l-11.698-11.698L173.075,338.941l11.974,11.974
	l-3.567,26.953l-30.917,30.917c16.772,2.47,34.457-2.746,47.366-15.656c14.319-14.319,19.17-34.514,14.567-52.824l130.679-130.679
	c18.308,4.603,38.503-0.248,52.824-14.567C408.909,182.15,414.125,164.464,411.657,147.692z"/>
</svg>