<svg xmlns="http://www.w3.org/2000/svg" width="48" height="48" id="paint">
  <g fill-rule="evenodd" transform="translate(0 -1004.362)">
    <circle cx="24" cy="1028.362" r="24" fill="#ef4c45"></circle>
    <path fill="#fff" d="M13.834 1014.362a1.842 1.842 0 0 0-1.834 1.834v5.334a1.84 1.84 0 0 0 1.834 1.832h17.332A1.84 1.84 0 0 0 33 1021.53v-1.168h.5c.083 0 .225.06.334.168a.54.54 0 0 1 .166.332v4a.545.545 0 0 1-.166.334.544.544 0 0 1-.334.166h-11c-.667 0-1.275.318-1.729.772-.453.453-.771 1.062-.771 1.728v4.5c-1.1 0-2 .9-2 2v8c0 1.1.9 2 2 2h3c1.1 0 2-.9 2-2v-8c0-1.1-.9-2-2-2v-3.5c0-.083.057-.225.166-.334a.544.544 0 0 1 .334-.166h11c.667 0 1.275-.318 1.729-.771.453-.454.771-1.062.771-1.729v-6c0-.666-.318-1.275-.771-1.728-.454-.454-1.062-.772-1.729-.772H33v-1.166a1.842 1.842 0 0 0-1.834-1.834H13.834zm0 1h17.332c.47 0 .834.364.834.834v5.334a.82.82 0 0 1-.834.832H13.834a.82.82 0 0 1-.834-.832v-5.334c0-.47.364-.834.834-.834zm19.166 3h1.5c.333 0 .725.182 1.021.479.297.296.479.688.479 1.021v6c0 .334-.182.725-.479 1.022-.296.296-.688.478-1.021.478h-11c-.417 0-.775.193-1.041.46-.266.265-.459.624-.459 1.04v3.5h-1v-4.5c0-.333.182-.725.479-1.021.296-.297.688-.479 1.021-.479h11c.416 0 .775-.193 1.041-.459.266-.266.459-.624.459-1.04v-4c0-.417-.193-.776-.459-1.042s-.624-.459-1.041-.459H33v-1zm-13 15h3c.563 0 1 .438 1 1v8c0 .563-.437 1-1 1h-3c-.563 0-1-.437-1-1v-8c0-.562.437-1 1-1z" color="#000" font-family="sans-serif" font-weight="400" overflow="visible" style="line-height:normal;text-indent:0;text-align:start;text-decoration-line:none;text-decoration-style:solid;text-decoration-color:#000;text-transform:none;block-progression:tb;isolation:auto;mix-blend-mode:normal"></path>
  </g>
</svg>
