<svg xmlns="http://www.w3.org/2000/svg" width="48" height="48" id="tool">
  <g transform="translate(0 -1004.362)">
    <circle cx="24" cy="1028.362" r="24" fill="#1d67b1"></circle>
    <path fill="#154082" d="M24 8c-2.207 0-4 1.793-4 4v.5a.5.5 0 0 0 .5.5l2 2h-2a.5.5 0 0 0-.5.5V27h-.5a.5.5 0 0 0-.5.5v9c0 .965.392 1.84 1.025 2.475l8.563 8.562A24 24 0 0 0 47.64 27.984L28.828 9.172A3.988 3.988 0 0 0 26 8h-2z" color="#000" font-family="sans-serif" font-weight="400" style="line-height:normal;text-indent:0;text-align:start;text-decoration-line:none;text-decoration-style:solid;text-decoration-color:#000;text-transform:none;block-progression:tb;isolation:auto;mix-blend-mode:normal" transform="translate(0 1004.362)"></path>
    <path fill="#fff" d="M24 1012.362c-2.207 0-4 1.793-4 4v.5a.5.5 0 0 0 .5.5H26v2h-5.5a.5.5 0 0 0-.5.5v11.5h-.5a.5.5 0 0 0-.5.5v9c0 1.93 1.57 3.5 3.5 3.5s3.5-1.57 3.5-3.5v-9a.5.5 0 0 0-.5-.5h-.49v-2.553l1.99-1.304v.287c0 .844.658 1.57 1.5 1.57s1.5-.726 1.5-1.57v-1.43h.5a.5.5 0 0 0 .5-.5v-2a.5.5 0 0 0-.5-.5H30v-7c0-2.207-1.793-4-4-4h-2zm0 1h2c1.67 0 3 1.33 3 3v5h-2v-1.422a.5.5 0 0 0 0-.16v-2.918a.5.5 0 0 0-.5-.5H21c0-1.67 1.33-3 3-3zm-3 7h5v1h-5v-1zm0 2h8v1h-2.5a.5.5 0 0 0-.5.5v2a.5.5 0 0 0 .5.5h.418l-2.908 1.908v3.092H23v-3.494a.5.5 0 0 0-.508-.506.5.5 0 0 0-.492.506v3.494h-1v-9zm6 2h3v1h-3v-1zm1 2h1v1.43c0 .343-.234.57-.5.57s-.5-.227-.5-.57v-1.43zm-8 6h2.457a.5.5 0 0 0 .074 0H25v1h-5v-1zm0 2h5v6.5c0 1.394-1.106 2.5-2.5 2.5a2.484 2.484 0 0 1-2.5-2.5v-6.5zm2.5 5c-.823 0-1.5.678-1.5 1.5 0 .823.677 1.5 1.5 1.5s1.5-.677 1.5-1.5c0-.822-.677-1.5-1.5-1.5zm0 1c.282 0 .5.218.5.5 0 .282-.218.5-.5.5a.493.493 0 0 1-.5-.5c0-.282.218-.5.5-.5z" color="#000" font-family="sans-serif" font-weight="400" overflow="visible" style="line-height:normal;text-indent:0;text-align:start;text-decoration-line:none;text-decoration-style:solid;text-decoration-color:#000;text-transform:none;block-progression:tb;isolation:auto;mix-blend-mode:normal"></path>
  </g>
</svg>
