<?xml version="1.0" encoding="iso-8859-1"?>
<!-- Uploaded to: SVG Repo, www.svgrepo.com, Generator: SVG Repo Mixer Tools -->
<svg version="1.1" id="Layer_1" xmlns="http://www.w3.org/2000/svg" xmlns:xlink="http://www.w3.org/1999/xlink" 
	 viewBox="0 0 512 512" xml:space="preserve">
<circle style="fill:#FF764C;" cx="256" cy="256" r="256"/>
<path style="fill:#FF450C;" d="M512,256c0-12.372-0.896-24.535-2.593-36.436L406.787,116.943l-230.66,217.781l-51.8,59.27
	l117.615,117.615c4.655,0.252,9.34,0.39,14.058,0.39C397.384,511.998,512,397.384,512,256z"/>
<path style="fill:#FFFFFF;" d="M386.257,158.001l20.53-41.058l-11.729-11.729l-41.058,20.528c-3.574,1.788-5.791,5.48-5.687,9.475
	l0.424,16.317L224.399,275.87l11.729,11.729l124.337-124.337l16.317,0.424C380.776,163.792,384.471,161.575,386.257,158.001z"/>
<path style="fill:#D0D1D3;" d="M400.06,110.214L229.402,280.873l6.727,6.727l124.337-124.337l16.317,0.424
	c3.994,0.103,7.687-2.113,9.475-5.687l20.53-41.06L400.06,110.214z"/>
<path style="fill:#00447D;" d="M130.295,399.963l-18.261-18.261c-9.095-9.095-9.095-23.842,0-32.937l87.743-87.743
	c9.095-9.095,23.842-9.095,32.937,0l18.261,18.261c9.095,9.095,9.095,23.842,0,32.937l-87.743,87.743
	C154.136,409.059,139.39,409.059,130.295,399.963z"/>
<path style="fill:#062964;" d="M240.983,269.293L120.304,389.972l9.992,9.992c9.095,9.095,23.842,9.095,32.937,0l87.743-87.742
	c9.095-9.095,9.095-23.842,0-32.937L240.983,269.293z"/>
<rect x="213.01" y="259.342" transform="matrix(-0.7071 -0.7071 0.7071 -0.7071 229.2066 629.1399)" style="fill:#005E8B;" width="63.784" height="15.515"/>
<rect x="239.185" y="270.204" transform="matrix(0.7071 0.7071 -0.7071 0.7071 271.4541 -99.4246)" style="fill:#00447D;" width="33.116" height="15.515"/>
<path style="fill:#062964;" d="M131.374,360.815L131.374,360.815c-2.02-2.02-2.02-5.294,0-7.315l73.138-73.138
	c2.02-2.02,5.294-2.02,7.315,0l0,0c2.02,2.02,2.02,5.294,0,7.315l-73.138,73.138C136.668,362.836,133.394,362.836,131.374,360.815z"
	/>
<path style="fill:#070C49;" d="M151.183,380.625L151.183,380.625c-2.02-2.02-2.02-5.294,0-7.315l73.138-73.138
	c2.02-2.02,5.294-2.02,7.315,0l0,0c2.02,2.02,2.02,5.294,0,7.315l-73.14,73.138C156.477,382.643,153.202,382.643,151.183,380.625z"
	/>
</svg>