<svg xmlns="http://www.w3.org/2000/svg" width="48" height="48" id="screw">
  <g transform="translate(0 -1004.362)">
    <circle cx="37.045" cy="28.409" r="12.5" fill="#50b748" fill-rule="evenodd" transform="translate(-47.127 973.817)scale(1.92)"></circle>
    <path fill="#fff" d="M34.295 1014.361c-.768 0-1.537.29-2.121.875l-8.766 8.766a.5.5 0 0 0-.152.725.75.75 0 0 1 .076.706.643.643 0 0 1-.527.39.5.5 0 0 0-.065.011 1.49 1.49 0 0 0-1.517.352 1.494 1.494 0 0 0 .002 2.101l.365.365-8.36 8.362h-1.517L10 1040.439l1.924 1.924 3.428-1.713v-1.515l8.359-8.362.361.362a1.49 1.49 0 0 0 2.1 0c.404-.404.518-.99.355-1.504a.5.5 0 0 0 .014-.072.642.642 0 0 1 .387-.528.751.751 0 0 1 .709.076.5.5 0 0 0 .734-.168l8.752-8.751a3.004 3.004 0 0 0 0-4.243l-.707-.709a2.988 2.988 0 0 0-2.121-.875zm0 .99c.51 0 1.02.2 1.414.594l.707.707c.79.79.79 2.039 0 2.828l-8.484 8.485-3.537-3.535 8.486-8.485a1.995 1.995 0 0 1 1.414-.593zm-.707 1.924c-.385 0-.77.145-1.06.436l-5.659 5.658a1.508 1.508 0 0 0 0 2.121c.582.582 1.54.582 2.121 0l5.659-5.658a1.508 1.508 0 0 0 0-2.121 1.495 1.495 0 0 0-1.061-.436zm0 .993c.126 0 .252.049.353.15a.488.488 0 0 1 0 .707l-5.658 5.658a.488.488 0 0 1-.707 0 .488.488 0 0 1 0-.707l5.658-5.658a.497.497 0 0 1 .354-.15zm-9.309 7.46 2.356 2.356c-.035.012-.072.015-.106.029a1.635 1.635 0 0 0-.695.582l-2.166-2.166c.251-.172.457-.407.582-.695.015-.034.017-.071.03-.106zm-2.005 1.018c.122 0 .245.05.343.148l2.848 2.848a.475.475 0 0 1 0 .688.473.473 0 0 1-.686 0l-2.847-2.848a.472.472 0 0 1-.002-.686.487.487 0 0 1 .343-.148zm.023 2.613.707.707-8.652 8.655v1.312l-2.23 1.113-.905-.904 1.115-2.228h1.313l8.652-8.655z" color="#000" font-family="sans-serif" font-weight="400" overflow="visible" style="line-height:normal;text-indent:0;text-align:start;text-decoration-line:none;text-decoration-style:solid;text-decoration-color:#000;text-transform:none;block-progression:tb;isolation:auto;mix-blend-mode:normal"></path>
  </g>
</svg>
